<svg width="960" height="200" viewBox="0 0 960 200" fill="none" xmlns="http://www.w3.org/2000/svg">
<g clip-path="url(#clip0_1_40)">
<path d="M952 31L929.2 35.5C906.3 40 860.7 49 815 53.5C769.3 58 723.7 58 678 57C632.3 56 586.7 54 540.8 49.2C495 44.3 449 36.7 403.2 32.3C357.3 28 311.7 27 266 25.5C220.3 24 174.7 22 129 26C83.3 30 37.7 40 14.8 45L-8 50V100H14.8C37.7 100 83.3 100 129 100C174.7 100 220.3 100 266 100C311.7 100 357.3 100 403.2 100C449 100 495 100 540.8 100C586.7 100 632.3 100 678 100C723.7 100 769.3 100 815 100C860.7 100 906.3 100 929.2 100H952V31Z" fill="#D24A87"/>
<path d="M952 63L929.2 63.2C906.3 63.3 860.7 63.7 815 65C769.3 66.3 723.7 68.7 678 63.8C632.3 59 586.7 47 540.8 39.8C495 32.7 449 30.3 403.2 33.8C357.3 37.3 311.7 46.7 266 53.7C220.3 60.7 174.7 65.3 129 65.2C83.3 65 37.7 60 14.8 57.5L-8 55V100H14.8C37.7 100 83.3 100 129 100C174.7 100 220.3 100 266 100C311.7 100 357.3 100 403.2 100C449 100 495 100 540.8 100C586.7 100 632.3 100 678 100C723.7 100 769.3 100 815 100C860.7 100 906.3 100 929.2 100H952V63Z" fill="#B8439A"/>
<path d="M952 82L929.2 77C906.3 72 860.7 62 815 60.8C769.3 59.7 723.7 67.3 678 72.8C632.3 78.3 586.7 81.7 540.8 85.5C495 89.3 449 93.7 403.2 91.3C357.3 89 311.7 80 266 74.2C220.3 68.3 174.7 65.7 129 64.8C83.3 64 37.7 65 14.8 65.5L-8 66V100H14.8C37.7 100 83.3 100 129 100C174.7 100 220.3 100 266 100C311.7 100 357.3 100 403.2 100C449 100 495 100 540.8 100C586.7 100 632.3 100 678 100C723.7 100 769.3 100 815 100C860.7 100 906.3 100 929.2 100H952V82Z" fill="#9245AB"/>
</g>
<g clip-path="url(#clip1_1_40)">
<path d="M-7 169L15.8 164.5C38.7 160 84.3 151 130 146.5C175.7 142 221.3 142 267 143C312.7 144 358.3 146 404.2 150.8C450 155.7 496 163.3 541.8 167.7C587.7 172 633.3 173 679 174.5C724.7 176 770.3 178 816 174C861.7 170 907.3 160 930.2 155L953 150V100H930.2C907.3 100 861.7 100 816 100C770.3 100 724.7 100 679 100C633.3 100 587.7 100 541.8 100C496 100 450 100 404.2 100C358.3 100 312.7 100 267 100C221.3 100 175.7 100 130 100C84.3 100 38.7 100 15.8 100H-7V169Z" fill="#D24A87"/>
<path d="M-7 137L15.8 136.8C38.7 136.7 84.3 136.3 130 135C175.7 133.7 221.3 131.3 267 136.2C312.7 141 358.3 153 404.2 160.2C450 167.3 496 169.7 541.8 166.2C587.7 162.7 633.3 153.3 679 146.3C724.7 139.3 770.3 134.7 816 134.8C861.7 135 907.3 140 930.2 142.5L953 145V100H930.2C907.3 100 861.7 100 816 100C770.3 100 724.7 100 679 100C633.3 100 587.7 100 541.8 100C496 100 450 100 404.2 100C358.3 100 312.7 100 267 100C221.3 100 175.7 100 130 100C84.3 100 38.7 100 15.8 100H-7V137Z" fill="#B8439A"/>
<path d="M-7 118L15.8 123C38.7 128 84.3 138 130 139.2C175.7 140.3 221.3 132.7 267 127.2C312.7 121.7 358.3 118.3 404.2 114.5C450 110.7 496 106.3 541.8 108.7C587.7 111 633.3 120 679 125.8C724.7 131.7 770.3 134.3 816 135.2C861.7 136 907.3 135 930.2 134.5L953 134V100H930.2C907.3 100 861.7 100 816 100C770.3 100 724.7 100 679 100C633.3 100 587.7 100 541.8 100C496 100 450 100 404.2 100C358.3 100 312.7 100 267 100C221.3 100 175.7 100 130 100C84.3 100 38.7 100 15.8 100H-7V118Z" fill="#9245AB"/>
</g>
<defs>
<clipPath id="clip0_1_40">
<rect width="960" height="100" fill="white" transform="translate(960 100) rotate(-180)"/>
</clipPath>
<clipPath id="clip1_1_40">
<rect width="960" height="100" fill="white" transform="translate(0 100)"/>
</clipPath>
</defs>
</svg>
