<svg id="visual" viewBox="0 0 960 200" width="960" height="200" xmlns="http://www.w3.org/2000/svg"
    xmlns:xlink="http://www.w3.org/1999/xlink" version="1.1">
    <!-- <rect x="0" y="0" width="960" height="200" fill="#becac8"></rect> -->
    <path
        d="M0 169L26.7 168.3C53.3 167.7 106.7 166.3 160 147.2C213.3 128 266.7 91 320 82.5C373.3 74 426.7 94 480 104.7C533.3 115.3 586.7 116.7 640 106.7C693.3 96.7 746.7 75.3 800 77.2C853.3 79 906.7 104 933.3 116.5L960 129L960 0L933.3 0C906.7 0 853.3 0 800 0C746.7 0 693.3 0 640 0C586.7 0 533.3 0 480 0C426.7 0 373.3 0 320 0C266.7 0 213.3 0 160 0C106.7 0 53.3 0 26.7 0L0 0Z"
        fill="#fa7268"></path>
    <path
        d="M0 43L26.7 45.5C53.3 48 106.7 53 160 50.8C213.3 48.7 266.7 39.3 320 51.5C373.3 63.7 426.7 97.3 480 108.8C533.3 120.3 586.7 109.7 640 100.2C693.3 90.7 746.7 82.3 800 70.5C853.3 58.7 906.7 43.3 933.3 35.7L960 28L960 0L933.3 0C906.7 0 853.3 0 800 0C746.7 0 693.3 0 640 0C586.7 0 533.3 0 480 0C426.7 0 373.3 0 320 0C266.7 0 213.3 0 160 0C106.7 0 53.3 0 26.7 0L0 0Z"
        fill="#eb5967"></path>
    <path
        d="M0 66L26.7 61.8C53.3 57.7 106.7 49.3 160 47.8C213.3 46.3 266.7 51.7 320 61.5C373.3 71.3 426.7 85.7 480 79.2C533.3 72.7 586.7 45.3 640 39.2C693.3 33 746.7 48 800 49.8C853.3 51.7 906.7 40.3 933.3 34.7L960 29L960 0L933.3 0C906.7 0 853.3 0 800 0C746.7 0 693.3 0 640 0C586.7 0 533.3 0 480 0C426.7 0 373.3 0 320 0C266.7 0 213.3 0 160 0C106.7 0 53.3 0 26.7 0L0 0Z"
        fill="#da3f67"></path>
    <path
        d="M0 69L26.7 57.5C53.3 46 106.7 23 160 12.3C213.3 1.7 266.7 3.3 320 10.3C373.3 17.3 426.7 29.7 480 29.7C533.3 29.7 586.7 17.3 640 15.2C693.3 13 746.7 21 800 26.3C853.3 31.7 906.7 34.3 933.3 35.7L960 37L960 0L933.3 0C906.7 0 853.3 0 800 0C746.7 0 693.3 0 640 0C586.7 0 533.3 0 480 0C426.7 0 373.3 0 320 0C266.7 0 213.3 0 160 0C106.7 0 53.3 0 26.7 0L0 0Z"
        fill="#c62368"></path>
</svg>